# xmcd
#
# Track frame offsets: 
#        150
#        37452
#        63590
#        79977
#        91840
#        118850
#        141630
#        168682
#        196435
#        218837
#
# Disc length: 3442 seconds
#
# Revision: 2
# Processed by: cddbd v1.5.2PL0 Copyright (c) Steve Scherf et al.
# Submitted via: ExactAudioCopy v0.99pb5
#
DISCID=a20d700a
DTITLE=Kengo Nakamura, Wess "Warmdaddy" Anderson, Marcus Printrup, Rod
DTITLE=ney Green, Aaron Parks - Roots
DYEAR=2005
DGENRE=Jazz
TTITLE0=Roots <K. Nakamura>
TTITLE1=DH Swing <K. Nakamura>
TTITLE2=Fifty Five <K. Nakamura>
TTITLE3=Sister Sadie <H. Silver>
TTITLE4=Wango Tango <K. Nakamura>
TTITLE5=Nostalgia <K. Nakamura>
TTITLE6=The Barron <A. Parks>
TTITLE7=Boogie Stop Shuffle <C. Mingus>
TTITLE8=All Is Well with You <K. Nakamura>
TTITLE9=Blues for Wess <K. Nakamura>
EXTD=YEAR: 2005
EXTT0=
EXTT1=
EXTT2=
EXTT3=
EXTT4=
EXTT5=
EXTT6=
EXTT7=
EXTT8=
EXTT9=
PLAYORDER=
